<?xml version="1.0" encoding="utf-8"?>
<!-- Generator: Adobe Illustrator 21.0.0, SVG Export Plug-In . SVG Version: 6.00 Build 0)  -->
<svg version="1.1" id="Layer_1" xmlns="http://www.w3.org/2000/svg" xmlns:xlink="http://www.w3.org/1999/xlink" x="0px" y="0px"
	 viewBox="0 0 501 247" style="enable-background:new 0 0 501 247;" xml:space="preserve">
<style type="text/css">
	.st0{fill:#009D93;}
	.st1{fill:#242F75;}
	.st2{fill-rule:evenodd;clip-rule:evenodd;fill:#CFCFCF;}
</style>
<g>
	<g>
		<path class="st0" d="M243.3,135c14.7-32.5,23.5-92.5,58.9-85.1c-28.2,3.5-42.7,65.6-55.3,98l-12.7,2l-16.5-41.7l9.8-13.5
			C235,115.5,235.4,114.6,243.3,135z"/>
		<g>
			<path class="st1" d="M202.3,75.8c3.5-1.2,7.1-2.2,10.8-3.1c0.2-0.5,0.3-0.8,0.4-1c2-4.6,4-9.2,6.1-13.7c1.6,4.1,3.2,8.3,4.8,12.5
				l0,0c4.3-0.7,8.7-1.2,13.2-1.6l0,0l-19.3-48.6L209,32.6l5.6,12.7c-3.3,8.4-6.8,17.2-10.6,26.5C203.6,72.7,203,74.1,202.3,75.8z"
				/>
			<path class="st1" d="M226.8,76.9c1.5,4.1,3.3,8.7,4.1,10.9c3.7,10,7.4,20.2,11.1,30.5l9.8-13.5l-12.1-30.4
				C235.4,75.1,231,75.9,226.8,76.9z"/>
			<path class="st1" d="M196.4,90c-2.9,7-5.7,13.8-6.9,16.6l5.2,11.8c4.1-10.8,8-21.3,12.3-31.3c0.6-1.3,1.2-2.7,1.8-4.2
				C204.5,84.9,200.3,87.2,196.4,90z"/>
		</g>
		<path class="st2" d="M185,85.2l1.1,11c18.5-19.1,45.7-24,74.6-25.9C235.4,69.6,210.1,72.5,185,85.2z"/>
	</g>
	<path class="st1" d="M240.4,183.7c-1.5-3.4-3.7-6.3-6.6-8.9c-2.6-2.2-5.7-4-9.2-5.1c-3.5-1.2-7.2-1.8-11.2-1.8
		c-3.9,0-7.7,0.6-11.2,1.8c-3.5,1.2-6.6,2.9-9.1,5.1c-3,2.6-5.2,5.6-6.7,9c-1.5,3.4-2.2,7.3-2.2,11.6c0,4.4,0.7,8.3,2.2,11.7
		c1.5,3.4,3.7,6.4,6.7,8.9c2.6,2.3,5.7,4,9.1,5.2c3.5,1.2,7.2,1.8,11.2,1.8c4,0,7.7-0.6,11.2-1.8c3.5-1.2,6.5-2.9,9.1-5.2
		c3-2.6,5.2-5.5,6.7-8.9c1.4-3.4,2.2-7.3,2.2-11.7C242.6,190.9,241.8,187,240.4,183.7z M225.9,213.4c-3.1,4.2-7.1,6.3-12,6.3
		c-5.1,0-9.3-2.4-12.7-7.3c-3.3-4.9-5-11.1-5-18.6c0-6.8,1.5-12.3,4.6-16.4c3.1-4.2,7-6.1,12-6.2c4.6-0.1,9.2,2.4,12.7,7.3
		c3.4,4.8,5.1,11,5.1,18.5C230.5,203.7,229,209.2,225.9,213.4z"/>
	<path class="st1" d="M296.8,169.7v2c-1.6,0.3-2.9,0.8-4,1.4c-1.1,0.6-2.1,1.4-2.9,2.4c-0.6,0.7-1.6,2.5-2.9,5.4
		c-1.3,2.8-3.9,8.8-7.8,17.9l-11,25.8l-3-0.5l-17.5-41.3l-0.8-1.9c-2.3-5.5-5.3-8.6-9.1-9.1v-2l6.3,0.2l6.6,0l6.8,0c1.1,0,2,0,2.6,0
		c2.7-0.1,4.2-0.2,4.5-0.2l0,2c-2.6,0.4-4.5,0.9-5.7,1.6c-1.1,0.7-1.7,1.6-1.7,2.8c0,0.7,0.1,1.6,0.4,2.5c0.2,0.9,0.7,2.1,1.2,3.6
		l0.3,0.8l11.3,28.3l1.9-4.9c6.5-17.2,9.7-27.3,9.7-30.4c0-1.2-0.7-2.1-2.2-2.8c-1.5-0.7-3.6-1.2-6.6-1.5v-2l6.4,0.2l6,0l5.7,0
		c0.8,0,1.5,0,2,0C295.6,169.8,296.7,169.7,296.8,169.7L296.8,169.7z"/>
	<path class="st1" d="M13.2,222.3v-2c3.9-0.6,7.3-4.4,10.1-11.1l0.3-0.8l13.5-33.7l-0.6-2.7c1.5-0.7,2.8-1.5,3.9-2.4
		c1.1-0.9,2.1-2,2.8-3.3h1.5l16,42.4l0.2,0.6c2.5,6.5,5.9,10.2,10.3,11.1v2l-6.4-0.2l-6.4-0.1c-0.7,0-1.8,0-3.2,0
		c-1.4,0-2.5,0-3.2,0c-0.9,0-2,0-3.3,0.1c-1.3,0-2.3,0.1-3.1,0.1v-2c2.2-0.3,3.8-0.8,4.8-1.5c1-0.7,1.5-1.8,1.5-3.2
		c0-0.4,0-0.9-0.1-1.3c-0.1-0.5-0.2-1-0.4-1.6c-0.3-1.2-1-3.2-2.2-6.2l-1.9-4.9H30.9l-1.8,5.2l-1.5,4.9c-0.3,1.1-0.4,2-0.4,2.7
		c0,1.9,0.7,3.3,2,4.2c1.4,0.9,3.8,1.5,7.2,1.8v2l-6.2-0.1l-6-0.1c-0.7,0-1.6,0-2.9,0c-1.3,0-2.2,0-2.8,0L13.2,222.3L13.2,222.3z
		 M32.6,196.7h13.1l-6.8-17.9L32.6,196.7L32.6,196.7z"/>
	<path class="st1" d="M314.9,169.8l7.4,0c1.1,0,2.1,0,2.8,0c2.8-0.1,4.4-0.2,4.7-0.2v2c-3.9,0.4-6.5,1.3-7.8,2.9
		c-1.3,1.6-1.9,5.4-1.9,11.5v19.7c0,6.1,0.6,9.9,1.9,11.4c1.3,1.6,3.9,2.6,7.8,3v2l-7.4-0.2l-7.4-0.1c-0.8,0-2.1,0-3.7,0
		c-1.7,0-2.9,0-3.7,0c-0.8,0-2.3,0-4.2,0.1c-2,0.1-3,0.1-3.2,0.1l0,0l0-2c3.9-0.4,6.5-1.4,7.8-3c1.3-1.6,2-5.4,2-11.5v-19.7
		c0-6.1-0.6-9.9-1.9-11.5c-1.3-1.6-3.9-2.6-7.8-3v-2l7.5,0.2"/>
	<path class="st1" d="M343.7,222.4c0.2,0,1.2,0,3.2-0.1c2-0.1,3.4-0.1,4.2-0.1c0.8,0,2.1,0,3.7,0c1.7,0,2.9,0,3.7,0l7.4,0.1l7.4,0.2
		v-2c-3.9-0.4-6.5-1.4-7.8-3c-1.3-1.6-1.9-5.4-1.9-11.5v-32.7h1h1.6c4.8,0,8.5,0.9,11,2.8c2.5,1.9,4.3,4.9,5.3,9.2l2.3-0.4
		l-1.6-17.4l-1.5-0.2c-0.6,1-1.3,1.7-2.1,2c-0.8,0.4-1.9,0.6-3.4,0.6h-33.6h-2c-1.4,0-2.5-0.2-3.2-0.6c-0.7-0.4-1.4-1.1-2-2
		l-1.4,0.2l-1.6,17.4l2.2,0.4c1-4.3,2.8-7.4,5.4-9.2c2.6-1.9,6.2-2.8,11.1-2.8h1.6h1v32.7c0,6-0.6,9.9-2,11.5
		c-1.3,1.6-3.9,2.6-7.8,3L343.7,222.4L343.7,222.4z"/>
	<path class="st1" d="M436.5,204c0,1,0.1,2.1,0.2,3.4c0.1,1.3,0.3,2.5,0.4,3.8l1.2,8.3c2.6,1.5,5.2,2.6,8,3.3
		c2.7,0.7,5.6,1.1,8.4,1.1c5.6,0,10.2-1.4,13.8-4.4c3.6-2.9,5.4-6.6,5.4-11.1c0-3.1-0.8-5.7-2.3-7.8c-1.5-2.2-4.9-4.8-10.1-7.9
		l-1-0.6c-7.4-4.5-11-8.5-11-12.1c0-2.3,0.8-4.2,2.4-5.7c1.6-1.6,3.5-2.3,5.8-2.3c2.7,0,5,1.2,6.8,3.5c1.8,2.3,3.1,5.8,3.8,10.3h2.3
		l1.1-13.5c-1-0.6-2.1-1.2-3.1-1.6c-1-0.4-2.1-0.8-3.2-1.1c-2.2-0.6-4.4-0.9-6.8-0.9c-2.8,0-5.3,0.4-7.6,1.1
		c-2.3,0.7-4.3,1.8-6.1,3.3c-3.5,2.9-5.3,6.6-5.3,11.1c0,2.8,0.8,5.4,2.5,7.5c1.7,2.2,4.8,4.6,9.4,7.3l0.9,0.5
		c7.4,4.3,11.1,8.3,11.1,11.9c0,2.7-0.8,4.8-2.3,6.5c-1.5,1.6-3.6,2.5-6.1,2.5c-3.6,0-6.9-1.5-9.8-4.5c-3-3-5.2-7.1-6.8-12.3
		L436.5,204z"/>
	<path class="st1" d="M64.9,171.8c2.1,0.5,3.9,1,5.2,1.6c1.3,0.6,2.3,1.2,2.7,1.9c0.5,0.7,0.9,1.8,1.1,3.4c0.2,1.6,0.3,4,0.3,7.4
		v16.1c0,4.9,0.5,8.7,1.6,11.2c1,2.6,2.8,4.7,5.2,6.4c1.8,1.3,4.1,2.3,6.7,2.9c1.3,0.4,2.7,0.6,4.2,0.8c1.4,0.2,2.9,0.3,4.5,0.3
		c4.5,0,8.3-0.7,11.6-2.2c3.3-1.4,5.8-3.6,7.6-6.4c1.1-1.6,1.9-4,2.5-7.2c0.6-3.2,0.9-7.1,0.9-11.6l0.1-4.2c0-2.2,0.1-4.5,0.2-6.9
		c0.1-2.4,0.3-4.4,0.6-6.1c0.3-2.1,0.8-3.7,1.4-4.5c0.5-0.7,1.1-1.3,2.1-1.7c0.9-0.5,2.2-0.9,3.8-1.2v-2c-0.2,0-1.5,0.1-3.7,0.2
		c-0.6,0-1.3,0-2.2,0l-5.9,0l-5.9,0l-5.9-0.2v2c2.3,0.3,4.2,0.7,5.7,1.2c1.5,0.5,2.6,1.2,3.3,2c0.9,1.2,1.6,3.4,2,6.8
		c0.4,3.4,0.6,9.3,0.6,17.7c0,3.5-0.2,6.3-0.7,8.6c-0.4,2.3-1.1,4.1-2,5.4c-1.2,1.7-2.8,3.1-4.8,4c-2,1-4.2,1.4-6.6,1.4
		c-3.2,0-6-0.6-8.5-1.8c-2.5-1.2-4.5-2.8-5.8-4.9c-0.9-1.5-1.6-3.2-2-5.3c-0.4-2.1-0.6-5.2-0.6-9.5V187c0-3.2,0.1-5.9,0.5-7.9
		c0.3-2,0.7-3.3,1.3-4c0.5-0.7,1.5-1.3,2.9-1.9c1.4-0.6,3.3-1,5.6-1.5v-2c-0.3,0-1.9,0.1-4.7,0.2c-0.7,0-1.6,0-2.8,0l-7.4,0l-7.4,0
		l-7.5-0.2V171.8L64.9,171.8z"/>
	<path class="st1" d="M177.5,213c-4.2-4.3-8.3-10.3-12.3-18c3.1-1.4,5.5-3.2,7.1-5.3c1.6-2.1,2.4-4.5,2.4-7.1c0-4.5-1.9-7.8-5.7-10
		c-3.8-2.2-9.7-3.3-17.6-3.3l-8.1,0.1l-13.3,0.4v2c2.4,0.4,4.2,0.9,5.4,1.4c1.2,0.5,2.1,1.2,2.7,2.1c0.5,0.8,0.8,2,1,3.8
		c0.2,1.8,0.3,4.2,0.3,7.2v19.7c0,6-0.6,9.8-1.9,11.4c-1.3,1.6-3.8,2.6-7.6,3l0,2c0.1,0,1.1,0,3.1-0.1c2-0.1,3.4-0.1,4.3-0.1
		c0.8,0,2.1,0,3.9,0c1.7,0,3,0,3.9,0l7.9,0.1l8.2,0.2l0-2c-2.8-0.4-5.1-1-6.8-1.6c-1.7-0.6-2.9-1.4-3.5-2.3
		c-0.3-0.4-0.5-0.8-0.6-1.2c-0.2-0.4-0.3-1-0.4-1.7c-0.2-1.2-0.3-3.9-0.3-8v-7.5c0.9,0,1.8,0.1,2.4,0.2c0.7,0.1,1.3,0.3,2,0.5
		c1.1,0.4,1.9,0.9,2.4,1.5c0.5,0.7,1.6,2.4,3.3,5.3c1.7,2.9,3.3,5.4,4.7,7.4c1.7,2.4,3.3,4.4,5,5.7c1.7,1.4,3.4,2.3,5.1,2.8
		c1.7,0.5,3.8,0.8,6.1,1c2.3,0.2,4.2,0.4,5.5,0.5c1.3,0.1,2.9,0.2,4.8,0.2l0-2.1C186.3,220,181.7,217.3,177.5,213z M160,191.6
		c-2.3,2-5.7,3.2-10.2,3.8v-23.2c2.1,0,3.9,0.3,5.6,0.9c1.7,0.6,3.1,1.4,4.4,2.5c2.4,2.1,3.6,4.8,3.6,8.1
		C163.4,187,162.3,189.7,160,191.6z"/>
	<path class="st1" d="M425.4,209.3l-0.2-0.6l-16-42.4h-1.5c-0.8,1.3-1.7,2.4-2.8,3.3c-1.1,0.9-2.4,1.7-3.9,2.4l0.6,2.7L388,208.4
		l-0.3,0.8c-2.8,6.8-6.1,10.5-10.1,11.1v2l5.4-0.1c0.6,0,1.5,0,2.8,0c1.3,0,2.2,0,2.9,0l6,0.1l6.2,0.1v-2c-3.4-0.3-5.9-0.9-7.2-1.8
		c-1.4-0.9-2-2.3-2-4.2c0-0.6,0.1-1.5,0.4-2.7l1.5-4.9l1.8-5.2h16.4l1.9,4.9c1.2,3,1.9,5.1,2.2,6.2c0.2,0.6,0.3,1.1,0.4,1.6
		c0.1,0.5,0.1,0.9,0.1,1.3c0,1.4-0.5,2.4-1.5,3.2c-1,0.7-2.6,1.2-4.8,1.5v2c0.8,0,1.9-0.1,3.1-0.1c1.3,0,2.4-0.1,3.3-0.1
		c0.7,0,1.8,0,3.2,0c1.4,0,2.5,0,3.2,0l6.4,0.1l6.4,0.2v-2C431.3,219.5,427.9,215.8,425.4,209.3z M396.9,196.7l6.3-17.9l6.8,17.9
		H396.9z"/>
	<g>
		<path class="st1" d="M483.2,175.7c-2.5,0-4.6-2-4.6-4.6s2-4.6,4.6-4.6s4.6,2,4.6,4.6S485.7,175.7,483.2,175.7z M483.2,167.5
			c-2,0-3.6,1.6-3.6,3.7s1.6,3.7,3.6,3.7s3.6-1.6,3.6-3.7S485.2,167.5,483.2,167.5z M484.2,173.6l-1-1.9h-0.6v1.9h-0.9v-4.9h1.8
			c0.9,0,1.6,0.7,1.6,1.5c0,0.7-0.4,1.1-1,1.3l1.1,2.1H484.2z M483.4,169.5h-0.8v1.5h0.8c0.5,0,0.8-0.3,0.8-0.7
			S483.8,169.5,483.4,169.5z"/>
	</g>
</g>
</svg>
